<svg xmlns="http://www.w3.org/2000/svg" xmlns:xlink="http://www.w3.org/1999/xlink" preserveAspectRatio="xMidYMid meet" version="1.0" viewBox="83.6 50.5 324.2 324.2" zoomAndPan="magnify" style="fill: rgb(0, 0, 0);" original_string_length="8319"><g><path d="M 4058.046875 2126.023438 C 4058.046875 1241.765625 3341.171875 524.890625 2456.914062 524.890625 C 1572.695312 524.890625 855.859375 1241.765625 855.859375 2126.023438 C 855.859375 3010.28125 1572.695312 3727.117188 2456.914062 3727.117188 C 3341.171875 3727.117188 4058.046875 3010.28125 4058.046875 2126.023438 Z M 4058.046875 2126.023438" stroke="#1b181a" stroke-linecap="round" stroke-linejoin="round" stroke-miterlimit="10" stroke-width="40" transform="matrix(.1 0 0 -.1 0 425.2)" style="fill: none;"/><g id="__id54_s07l4sra1q"><path d="M 346.386719 234.207031 C 344.355469 230.988281 340.0625 229.109375 336.886719 227.261719 C 333.664062 225.386719 329.28125 222.6875 325.40625 223.617188 C 324.6875 223.789062 324.386719 224.65625 324.734375 225.269531 C 326.613281 228.617188 331.019531 230.09375 334.230469 231.804688 C 337.363281 233.472656 340.933594 236.027344 344.441406 236.738281 C 345.84375 237.019531 347.246094 235.570312 346.386719 234.207031" style="fill: rgb(42, 71, 44);"/></g><g id="__id55_s07l4sra1q"><path d="M 360.285156 204.996094 C 357.066406 203.503906 353.621094 202.878906 350.164062 202.167969 C 346.105469 201.339844 341.507812 199.46875 337.359375 200.007812 C 335.441406 200.257812 334.261719 202.324219 335.742188 203.90625 C 338.808594 207.171875 343.554688 207.632812 347.804688 208.15625 C 352.050781 208.683594 356.339844 208.507812 360.285156 206.757812 C 360.960938 206.457031 360.941406 205.304688 360.285156 204.996094" style="fill: rgb(42, 71, 44);"/></g><g id="__id56_s07l4sra1q"><path d="M 364.496094 168.242188 C 360.421875 167.074219 356.917969 167.175781 352.714844 167.753906 C 348.808594 168.289062 344.058594 168.554688 340.828125 170.980469 C 339.398438 172.054688 339.605469 173.988281 341.308594 174.640625 C 344.65625 175.925781 347.9375 174.726562 351.300781 173.941406 C 355.773438 172.898438 360.148438 171.457031 364.496094 170.003906 C 365.339844 169.722656 365.394531 168.5 364.496094 168.242188" style="fill: rgb(42, 71, 44);"/></g><g id="__id57_s07l4sra1q"><path d="M 357.660156 129.425781 C 353.289062 130.664062 349.183594 132.398438 344.976562 134.101562 C 340.683594 135.84375 335.453125 136.589844 331.648438 139.238281 C 330.105469 140.3125 329.96875 143.269531 332.230469 143.671875 C 341.339844 145.289062 352.453125 137.199219 358.824219 131.421875 C 359.726562 130.605469 358.78125 129.105469 357.660156 129.425781" style="fill: rgb(42, 71, 44);"/></g><g id="__id58_s07l4sra1q"><path d="M 153.257812 236.738281 C 156.816406 236.015625 160.253906 233.414062 163.472656 231.804688 C 166.679688 230.195312 171.117188 228.5625 172.96875 225.269531 C 173.3125 224.65625 173.015625 223.789062 172.296875 223.617188 C 168.316406 222.664062 164.164062 225.480469 160.8125 227.261719 C 157.636719 228.949219 153.296875 231.066406 151.3125 234.207031 C 150.453125 235.570312 151.859375 237.019531 153.257812 236.738281" style="fill: rgb(42, 71, 44);"/></g><g id="__id59_s07l4sra1q"><path d="M 137.417969 206.757812 C 141.359375 208.507812 145.648438 208.683594 149.898438 208.15625 C 154.144531 207.632812 158.894531 207.171875 161.957031 203.90625 C 163.441406 202.324219 162.261719 200.257812 160.34375 200.007812 C 156.546875 199.511719 152.753906 201.1875 149.054688 201.910156 C 145.09375 202.683594 141.101562 203.285156 137.417969 204.996094 C 136.757812 205.304688 136.742188 206.457031 137.417969 206.757812" style="fill: rgb(42, 71, 44);"/></g><g id="__id60_s07l4sra1q"><path d="M 133.207031 170.003906 C 137.105469 171.308594 141.007812 172.375 144.964844 173.519531 C 148.601562 174.570312 152.703125 176.058594 156.394531 174.640625 C 158.097656 173.988281 158.300781 172.054688 156.871094 170.980469 C 153.644531 168.554688 148.894531 168.289062 144.988281 167.753906 C 140.78125 167.175781 137.28125 167.074219 133.207031 168.242188 C 132.308594 168.5 132.363281 169.722656 133.207031 170.003906" style="fill: rgb(42, 71, 44);"/></g><g id="__id61_s07l4sra1q"><path d="M 138.878906 131.421875 C 145.246094 137.199219 156.363281 145.289062 165.472656 143.671875 C 167.730469 143.269531 167.59375 140.3125 166.050781 139.238281 C 162.675781 136.886719 158.144531 136.167969 154.304688 134.734375 C 149.519531 132.945312 144.964844 130.820312 140.039062 129.425781 C 138.917969 129.105469 137.976562 130.605469 138.878906 131.421875" style="fill: rgb(42, 71, 44);"/></g><path d="M 1397.226562 1195.242188 C 1397.226562 1195.242188 1642.96875 1195.242188 1683.554688 1195.242188 C 1724.140625 1195.242188 2211.875 1000.90625 2634.335938 1135.28125 C 2756.914062 1174.265625 3053.398438 1340.203125 3053.398438 1340.203125 C 3069.882812 1346.101562 3370.273438 1580.984375 3370.273438 1580.984375 C 3415.742188 1615.828125 3424.335938 1680.90625 3389.492188 1726.335938 C 3354.6875 1771.765625 3289.609375 1780.359375 3244.140625 1745.554688 L 2963.320312 1528.171875 L 2581.328125 1391.453125 L 2361.523438 1391.453125 C 2290.429688 1395.164062 2255.664062 1528.289062 2428.515625 1528.289062 L 2698.398438 1563.953125 C 2755.351562 1569.929688 2796.679688 1620.945312 2790.703125 1677.859375 C 2784.726562 1734.8125 2733.710938 1776.140625 2676.757812 1770.164062 L 2412.148438 1735.046875 C 2412.148438 1735.046875 2177.382812 1734.34375 2171.210938 1733.210938 C 2124.414062 1743.484375 2076.796875 1749.695312 2031.757812 1749.695312 C 1857.265625 1749.695312 1750.390625 1701.609375 1698.007812 1649.226562 C 1657.734375 1608.953125 1564.335938 1607.742188 1564.335938 1607.742188 L 1181.796875 1607.742188" stroke="#1b181a" stroke-linecap="round" stroke-linejoin="round" stroke-miterlimit="10" stroke-width="40" transform="matrix(.1 0 0 -.1 0 425.2)" style="fill: none;"/><g id="__id62_s07l4sra1q"><path d="M 243.539062 153.964844 C 243.539062 172.742188 261.773438 187.964844 261.773438 187.964844 C 261.773438 187.964844 280.007812 172.742188 280.007812 153.964844 C 280.007812 135.1875 261.773438 119.964844 261.773438 119.964844 C 261.773438 119.964844 243.539062 135.1875 243.539062 153.964844" style="fill: rgb(181, 221, 53);"/></g><g id="__id63_s07l4sra1q"><path d="M 192.199219 182.710938 C 208.085938 192.726562 230.6875 185.421875 230.6875 185.421875 C 230.6875 185.421875 227.539062 161.878906 211.652344 151.863281 C 195.769531 141.847656 173.164062 149.152344 173.164062 149.152344 C 173.164062 149.152344 176.316406 172.695312 192.199219 182.710938" style="fill: rgb(181, 221, 53);"/></g><path d="M 2617.734375 1553.289062 L 2617.734375 1460.828125" stroke="#1b181a" stroke-linecap="round" stroke-linejoin="round" stroke-miterlimit="10" stroke-width="40" transform="matrix(.1 0 0 -.1 0 425.2)" style="fill: none;"/><path d="M 2617.734375 2783.054688 L 2617.734375 1762.3125" stroke="#1b181a" stroke-linecap="round" stroke-linejoin="round" stroke-miterlimit="10" stroke-width="40" transform="matrix(.1 0 0 -.1 0 425.2)" style="fill: none;"/><path d="M 2617.734375 1864.226562 C 2487.34375 2264.421875 2285.898438 2486.101562 1979.804688 2579.148438" stroke="#1b181a" stroke-linecap="round" stroke-linejoin="round" stroke-miterlimit="10" stroke-width="40" transform="matrix(.1 0 0 -.1 0 425.2)" style="fill: none;"/><g id="__id64_s07l4sra1q"><path d="M 205.238281 227.917969 C 224.003906 228.667969 239.945312 211.058594 239.945312 211.058594 C 239.945312 211.058594 225.464844 192.230469 206.699219 191.480469 C 187.9375 190.726562 171.996094 208.339844 171.996094 208.339844 C 171.996094 208.339844 186.476562 227.164062 205.238281 227.917969" style="fill: rgb(181, 221, 53);"/></g><path d="M 2521.132812 2102.820312 C 2357.96875 2165.359375 2195.664062 2174.734375 2025.507812 2135.320312" stroke="#1b181a" stroke-linecap="round" stroke-linejoin="round" stroke-miterlimit="10" stroke-width="40" transform="matrix(.1 0 0 -.1 0 425.2)" style="fill: none;"/><g id="__id65_s07l4sra1q"><path d="M 313.441406 213.277344 C 300.605469 226.980469 276.886719 225.621094 276.886719 225.621094 C 276.886719 225.621094 273.992188 202.046875 286.832031 188.34375 C 299.675781 174.640625 323.390625 176.003906 323.390625 176.003906 C 323.390625 176.003906 326.28125 199.578125 313.441406 213.277344" style="fill: rgb(181, 221, 53);"/></g><path d="M 2656.835938 1767.507812 C 2716.757812 1941.921875 2824.726562 2122.039062 3039.570312 2253.835938" stroke="#1b181a" stroke-linecap="round" stroke-linejoin="round" stroke-miterlimit="10" stroke-width="40" transform="matrix(.1 0 0 -.1 0 425.2)" style="fill: none;"/></g></svg>